<svg width="24" height="24" viewBox="0 0 24 24" fill="none" xmlns="http://www.w3.org/2000/svg">
<path d="M3.16992 7.43945L11.9999 12.5494L20.7699 7.46942" stroke="white" stroke-linecap="round" stroke-linejoin="round"/>
<path d="M11.9998 21.6091V12.5391" stroke="white" stroke-linecap="round" stroke-linejoin="round"/>
<path d="M9.92987 2.47902L4.58987 5.44906C3.37987 6.11906 2.38989 7.79904 2.38989 9.17904V14.8291C2.38989 16.2091 3.37987 17.889 4.58987 18.559L9.92987 21.5291C11.0699 22.1591 12.9399 22.1591 14.0799 21.5291L19.4199 18.559C20.6299 17.889 21.6199 16.2091 21.6199 14.8291V9.17904C21.6199 7.79904 20.6299 6.11906 19.4199 5.44906L14.0799 2.47902C12.9299 1.83902 11.0699 1.83902 9.92987 2.47902Z" stroke="white" stroke-width="1.01105" stroke-linecap="round" stroke-linejoin="round"/>
<path d="M17 13.2406V9.58063L7.51001 4.10059" stroke="white" stroke-width="1.01105" stroke-linecap="round" stroke-linejoin="round"/>
</svg>
