<svg width="78" height="82" viewBox="0 0 78 82" fill="none" xmlns="http://www.w3.org/2000/svg">
<path d="M18.0799 23.8811C20.6466 23.8811 22.7274 21.6936 22.7274 18.9952C22.7274 16.2968 20.6466 14.1094 18.0799 14.1094C15.5132 14.1094 13.4324 16.2968 13.4324 18.9952C13.4324 21.6936 15.5132 23.8811 18.0799 23.8811Z" fill="#4266B0"/>
<path d="M22.7969 65.9708H13.4333V29.0708C13.4333 29.0708 14.781 26.6662 18.0808 26.667C21.6645 26.667 22.729 29.0708 22.729 29.0708L22.7969 65.9708Z" fill="#4266B0"/>
<path d="M32.0491 23.8811C34.6159 23.8811 36.6966 21.6936 36.6966 18.9952C36.6966 16.2968 34.6159 14.1094 32.0491 14.1094C29.4824 14.1094 27.4016 16.2968 27.4016 18.9952C27.4016 21.6936 29.4824 23.8811 32.0491 23.8811Z" fill="#4266B0"/>
<path d="M36.7346 65.9708H27.4006V29.0708C27.4006 29.0708 28.749 26.6662 32.0488 26.667C35.6325 26.667 36.6963 29.0708 36.6963 29.0708L36.7346 65.9708Z" fill="#4266B0"/>
<path d="M46.0393 23.8811C48.606 23.8811 50.6868 21.6936 50.6868 18.9952C50.6868 16.2968 48.606 14.1094 46.0393 14.1094C43.4726 14.1094 41.3918 16.2968 41.3918 18.9952C41.3918 21.6936 43.4726 23.8811 46.0393 23.8811Z" fill="#82CCF2"/>
<path d="M50.6871 65.9708H41.3379L41.3913 29.0708C41.3913 29.0708 42.739 26.6662 46.0388 26.667C49.6225 26.667 50.6871 29.0708 50.6871 29.0708V65.9708Z" fill="#82CCF2"/>
<path d="M60.1665 23.8811C62.7332 23.8811 64.814 21.6936 64.814 18.9952C64.814 16.2968 62.7332 14.1094 60.1665 14.1094C57.5997 14.1094 55.519 16.2968 55.519 18.9952C55.519 21.6936 57.5997 23.8811 60.1665 23.8811Z" fill="#4266B0"/>
<path d="M64.8142 65.9708H55.2903L55.5192 29.0708C55.5192 29.0708 56.8669 26.6662 60.1667 26.667C63.7504 26.667 64.8142 29.0708 64.8142 29.0708V65.9708Z" fill="#4266B0"/>
<path d="M48.172 23.3363C48.5364 23.1383 48.8744 22.8907 49.1773 22.5999L46.8662 19.25L45.8753 20.0093L48.172 23.3363Z" fill="white"/>
<path d="M45.9235 21.3661C47.1776 21.3661 48.1942 20.2973 48.1942 18.9789C48.1942 17.6606 47.1776 16.5918 45.9235 16.5918C44.6694 16.5918 43.6528 17.6606 43.6528 18.9789C43.6528 20.2973 44.6694 21.3661 45.9235 21.3661Z" fill="white"/>
</svg>
