<svg width="62" height="66" viewBox="0 0 62 66" fill="none" xmlns="http://www.w3.org/2000/svg">
<path d="M14.3712 19.4304C16.4114 19.4304 18.0653 17.6964 18.0653 15.5575C18.0653 13.4185 16.4114 11.6846 14.3712 11.6846C12.3309 11.6846 10.677 13.4185 10.677 15.5575C10.677 17.6964 12.3309 19.4304 14.3712 19.4304Z" fill="#82CCF2"/>
<path d="M18.1206 52.7942H10.6777V23.5441C10.6777 23.5441 11.749 21.6381 14.3719 21.6387C17.2205 21.6387 18.0666 23.5441 18.0666 23.5441L18.1206 52.7942Z" fill="#82CCF2"/>
<path d="M25.4749 19.4304C27.5152 19.4304 29.1691 17.6964 29.1691 15.5575C29.1691 13.4185 27.5152 11.6846 25.4749 11.6846C23.4347 11.6846 21.7808 13.4185 21.7808 15.5575C21.7808 17.6964 23.4347 19.4304 25.4749 19.4304Z" fill="#82CCF2"/>
<path d="M29.1994 52.7942H21.78V23.5441C21.78 23.5441 22.8518 21.6381 25.4748 21.6387C28.3233 21.6387 29.1689 23.5441 29.1689 23.5441L29.1994 52.7942Z" fill="#82CCF2"/>
<path d="M36.5953 19.4304C38.6355 19.4304 40.2894 17.6964 40.2894 15.5575C40.2894 13.4185 38.6355 11.6846 36.5953 11.6846C34.5551 11.6846 32.9011 13.4185 32.9011 15.5575C32.9011 17.6964 34.5551 19.4304 36.5953 19.4304Z" fill="white"/>
<path d="M40.2898 52.7942H32.8584L32.9009 23.5441C32.9009 23.5441 33.9721 21.6381 36.595 21.6387C39.4436 21.6387 40.2898 23.5441 40.2898 23.5441V52.7942Z" fill="white"/>
<path d="M47.8245 19.4304C49.8648 19.4304 51.5187 17.6964 51.5187 15.5575C51.5187 13.4185 49.8648 11.6846 47.8245 11.6846C45.7843 11.6846 44.1304 13.4185 44.1304 15.5575C44.1304 17.6964 45.7843 19.4304 47.8245 19.4304Z" fill="#82CCF2"/>
<path d="M51.519 52.7942H43.9487L44.1307 23.5441C44.1307 23.5441 45.2019 21.6381 47.8249 21.6387C50.6734 21.6387 51.519 23.5441 51.519 23.5441V52.7942Z" fill="#82CCF2"/>
<path d="M38.2906 18.9989C38.5803 18.842 38.849 18.6457 39.0897 18.4151L37.2527 15.7598L36.4651 16.3616L38.2906 18.9989Z" fill="#4266B0"/>
<path d="M36.5034 17.4368C37.5002 17.4368 38.3083 16.5896 38.3083 15.5446C38.3083 14.4995 37.5002 13.6523 36.5034 13.6523C35.5066 13.6523 34.6985 14.4995 34.6985 15.5446C34.6985 16.5896 35.5066 17.4368 36.5034 17.4368Z" fill="#4266B0"/>
</svg>
