<svg width="20" height="21" viewBox="0 0 20 21" fill="none" xmlns="http://www.w3.org/2000/svg">
<path d="M12.9833 10.4999C12.9833 12.1499 11.6499 13.4833 9.99993 13.4833C8.34993 13.4833 7.0166 12.1499 7.0166 10.4999C7.0166 8.84993 8.34993 7.5166 9.99993 7.5166C11.6499 7.5166 12.9833 8.84993 12.9833 10.4999Z" stroke="#B3B3B3" stroke-width="1.5" stroke-linecap="round" stroke-linejoin="round"/>
<path d="M10.0001 17.3913C12.9418 17.3913 15.6834 15.6579 17.5918 12.6579C18.3418 11.4829 18.3418 9.50794 17.5918 8.33294C15.6834 5.33294 12.9418 3.59961 10.0001 3.59961C7.05845 3.59961 4.31678 5.33294 2.40845 8.33294C1.65845 9.50794 1.65845 11.4829 2.40845 12.6579C4.31678 15.6579 7.05845 17.3913 10.0001 17.3913Z" stroke="#B3B3B3" stroke-width="1.5" stroke-linecap="round" stroke-linejoin="round"/>
</svg>
