<svg width="522" height="388" viewBox="0 0 522 388" fill="none" xmlns="http://www.w3.org/2000/svg">
<path d="M521.301 340.891H0.698853V341.151H521.301V340.891Z" fill="#EBEBEB"/>
<path d="M469.137 357.644H434.652V357.904H469.137V357.644Z" fill="#EBEBEB"/>
<path d="M345.567 360.476H336.519V360.736H345.567V360.476Z" fill="#EBEBEB"/>
<path d="M433.611 347.981H413.63V348.242H433.611V347.981Z" fill="#EBEBEB"/>
<path d="M100.29 349.73H55.3205V349.991H100.29V349.73Z" fill="#EBEBEB"/>
<path d="M116.158 349.73H109.567V349.991H116.158V349.73Z" fill="#EBEBEB"/>
<path d="M235.126 354.124H137.586V354.384H235.126V354.124Z" fill="#EBEBEB"/>
<path d="M247.464 294.453H46.4181C44.8431 294.45 43.3335 293.822 42.2208 292.708C41.1081 291.593 40.4832 290.082 40.4832 288.507V5.89322C40.4969 4.32727 41.1279 2.82997 42.2391 1.72654C43.3503 0.623117 44.852 0.00268255 46.4181 0H247.464C249.041 0 250.553 0.626376 251.668 1.74133C252.783 2.85629 253.41 4.36849 253.41 5.94528V288.507C253.41 290.084 252.783 291.596 251.668 292.711C250.553 293.826 249.041 294.453 247.464 294.453V294.453ZM46.4181 0.208242C44.9121 0.211 43.4688 0.811166 42.4049 1.87701C41.341 2.94285 40.7435 4.38727 40.7435 5.89322V288.507C40.7435 290.013 41.341 291.458 42.4049 292.524C43.4688 293.589 44.9121 294.19 46.4181 294.192H247.464C248.971 294.19 250.416 293.59 251.481 292.524C252.547 291.459 253.146 290.014 253.149 288.507V5.89322C253.146 4.38631 252.547 2.94192 251.481 1.87637C250.416 0.810828 248.971 0.210994 247.464 0.208242H46.4181Z" fill="#EBEBEB"/>
<path d="M472.687 294.453H271.631C270.055 294.45 268.544 293.823 267.43 292.708C266.315 291.594 265.688 290.083 265.685 288.507V5.89322C265.702 4.32632 266.335 2.82903 267.448 1.72589C268.561 0.622754 270.064 0.00265329 271.631 0H472.687C474.252 0.00541895 475.751 0.627065 476.86 1.7302C477.969 2.83333 478.598 4.32907 478.612 5.89322V288.507C478.612 290.081 477.988 291.59 476.878 292.704C475.767 293.818 474.261 294.447 472.687 294.453V294.453ZM271.631 0.208242C270.124 0.210994 268.679 0.810828 267.614 1.87637C266.548 2.94192 265.949 4.38631 265.946 5.89322V288.507C265.949 290.014 266.548 291.459 267.614 292.524C268.679 293.59 270.124 294.19 271.631 294.192H472.687C474.194 294.19 475.639 293.59 476.704 292.524C477.77 291.459 478.37 290.014 478.372 288.507V5.89322C478.37 4.38631 477.77 2.94192 476.704 1.87637C475.639 0.810828 474.194 0.210994 472.687 0.208242H271.631Z" fill="#EBEBEB"/>
<path d="M391.473 88.8251L397.325 86.4199H443.211L453.623 107.036V112.45L391.473 88.8251Z" fill="#E0E0E0"/>
<path d="M431.643 104.495H427.062V275.575H431.643V104.495Z" fill="#E0E0E0"/>
<path d="M454.05 112.783H403.374L391.744 89.1689H442.42L454.05 112.783Z" fill="#F0F0F0"/>
<path d="M407.102 95.5619C408.299 97.9879 407.185 99.9557 404.624 99.9557C403.208 99.8586 401.841 99.4047 400.648 98.6364C399.456 97.8681 398.477 96.8104 397.804 95.5619C396.617 93.1358 397.721 91.168 400.292 91.168C401.708 91.2601 403.076 91.712 404.267 92.481C405.459 93.2499 406.435 94.3103 407.102 95.5619Z" fill="#FAFAFA"/>
<path d="M418.071 98.5168C419.192 96.9041 417.994 94.1327 415.396 92.3267C412.798 90.5207 409.783 90.3639 408.662 91.9765C407.541 93.5892 408.738 96.3606 411.336 98.1666C413.935 99.9726 416.95 100.129 418.071 98.5168Z" fill="#FAFAFA"/>
<path d="M430.867 98.8563C431.992 97.2436 430.798 94.4662 428.2 92.6529C425.602 90.8396 422.583 90.6771 421.458 92.2898C420.332 93.9026 421.526 96.6799 424.124 98.4932C426.723 100.306 429.741 100.469 430.867 98.8563Z" fill="#FAFAFA"/>
<path d="M442.648 95.5619C443.846 97.9879 442.732 99.9557 440.17 99.9557C438.755 99.8586 437.388 99.4047 436.195 98.6364C435.003 97.8681 434.024 96.8104 433.351 95.5619C432.164 93.1358 433.267 91.168 435.839 91.168C437.254 91.2601 438.622 91.712 439.814 92.481C441.006 93.2499 441.981 94.3103 442.648 95.5619Z" fill="#FAFAFA"/>
<path d="M412.503 109.682C413.629 108.07 412.435 105.292 409.837 103.479C407.238 101.666 404.22 101.503 403.094 103.116C401.969 104.729 403.162 107.506 405.761 109.319C408.359 111.133 411.378 111.295 412.503 109.682Z" fill="#FAFAFA"/>
<path d="M424.355 109.69C425.481 108.078 424.287 105.3 421.688 103.487C419.09 101.674 416.071 101.511 414.946 103.124C413.82 104.737 415.014 107.514 417.613 109.327C420.211 111.14 423.23 111.303 424.355 109.69Z" fill="#FAFAFA"/>
<path d="M436.196 109.688C437.322 108.076 436.128 105.298 433.529 103.485C430.931 101.672 427.912 101.509 426.787 103.122C425.661 104.735 426.855 107.512 429.454 109.325C432.052 111.139 435.071 111.301 436.196 109.688Z" fill="#FAFAFA"/>
<path d="M448.048 109.685C449.173 108.073 447.979 105.295 445.381 103.482C442.783 101.669 439.764 101.506 438.639 103.119C437.513 104.732 438.707 107.509 441.305 109.322C443.904 111.136 446.922 111.298 448.048 109.685Z" fill="#FAFAFA"/>
<path d="M111.389 88.8251L117.241 86.4199H163.127L173.539 107.036V112.45L111.389 88.8251Z" fill="#E0E0E0"/>
<path d="M151.559 104.495H146.978V275.575H151.559V104.495Z" fill="#E0E0E0"/>
<path d="M173.966 112.783H123.29L111.66 89.1689H162.336L173.966 112.783Z" fill="#F0F0F0"/>
<path d="M127.018 95.5619C128.215 97.9879 127.101 99.9557 124.54 99.9557C123.124 99.8586 121.757 99.4047 120.564 98.6364C119.372 97.8681 118.393 96.8104 117.72 95.5619C116.533 93.1358 117.636 91.168 120.208 91.168C121.623 91.2601 122.992 91.712 124.183 92.481C125.375 93.2499 126.351 94.3103 127.018 95.5619Z" fill="#FAFAFA"/>
<path d="M138.622 98.4962C139.743 96.8836 138.545 94.1122 135.947 92.3062C133.349 90.5001 130.334 90.3434 129.213 91.956C128.092 93.5687 129.289 96.3401 131.887 98.1461C134.486 99.9521 137.501 100.109 138.622 98.4962Z" fill="#FAFAFA"/>
<path d="M150.777 98.8504C151.902 97.2377 150.708 94.4604 148.11 92.6471C145.512 90.8338 142.493 90.6712 141.367 92.284C140.242 93.8967 141.436 96.6741 144.034 98.4873C146.633 100.301 149.651 100.463 150.777 98.8504Z" fill="#FAFAFA"/>
<path d="M162.564 95.5619C163.762 97.9879 162.648 99.9557 160.086 99.9557C158.671 99.8586 157.303 99.4047 156.111 98.6364C154.918 97.8681 153.94 96.8104 153.266 95.5619C152.08 93.1358 153.183 91.168 155.755 91.168C157.17 91.2601 158.538 91.712 159.73 92.481C160.922 93.2499 161.897 94.3103 162.564 95.5619Z" fill="#FAFAFA"/>
<path d="M132.413 109.686C133.539 108.074 132.345 105.296 129.747 103.483C127.148 101.67 124.13 101.507 123.004 103.12C121.879 104.733 123.073 107.51 125.671 109.323C128.269 111.137 131.288 111.299 132.413 109.686Z" fill="#FAFAFA"/>
<path d="M144.265 109.684C145.39 108.072 144.196 105.294 141.598 103.481C139 101.668 135.981 101.505 134.856 103.118C133.73 104.731 134.924 107.508 137.522 109.321C140.121 111.135 143.139 111.297 144.265 109.684Z" fill="#FAFAFA"/>
<path d="M156.106 109.682C157.232 108.069 156.038 105.291 153.44 103.478C150.841 101.665 147.823 101.502 146.697 103.115C145.572 104.728 146.765 107.505 149.364 109.318C151.962 111.132 154.981 111.294 156.106 109.682Z" fill="#FAFAFA"/>
<path d="M167.958 109.68C169.084 108.067 167.89 105.289 165.291 103.476C162.693 101.663 159.674 101.5 158.549 103.113C157.423 104.726 158.617 107.503 161.216 109.316C163.814 111.13 166.833 111.292 167.958 109.68Z" fill="#FAFAFA"/>
<path d="M448.094 172.84H236.032V196.788H209.117V221.776H183.003V245.724H155.859V324.856H448.094V172.84Z" fill="#E0E0E0"/>
<path d="M417.899 175.162H236.032V196.788H417.899V175.162Z" fill="#EBEBEB"/>
<path d="M391.14 199.453H209.117V221.787H391.14V199.453Z" fill="#EBEBEB"/>
<path d="M364.933 223.744H183.003V245.734H364.933V223.744Z" fill="#EBEBEB"/>
<path d="M337.726 248.327H155.859V269.953H337.726V248.327Z" fill="#EBEBEB"/>
<path d="M261 387.911C372.495 387.911 462.879 382.634 462.879 376.124C462.879 369.615 372.495 364.338 261 364.338C149.505 364.338 59.1209 369.615 59.1209 376.124C59.1209 382.634 149.505 387.911 261 387.911Z" fill="#F5F5F5"/>
<path d="M271.204 341.015H83.9014L66.4196 271.754H253.712L271.204 341.015Z" fill="#82CCF2"/>
<path d="M253.493 271.754H66.1908L48.6985 341.015H236.001L253.493 271.754Z" fill="#82CCF2"/>
<path opacity="0.6" d="M253.493 271.754H66.1908L48.6985 341.015H236.001L253.493 271.754Z" fill="white"/>
<path d="M469.158 341.015H281.855L264.374 271.754H451.666L469.158 341.015Z" fill="#82CCF2"/>
<path d="M451.447 271.754H264.144L246.652 341.015H433.954L451.447 271.754Z" fill="#82CCF2"/>
<path opacity="0.6" d="M451.447 271.754H264.144L246.652 341.015H433.954L451.447 271.754Z" fill="white"/>
<path d="M278.7 21.8652H273.494V340.474H278.7V21.8652Z" fill="#82CCF2"/>
<path opacity="0.4" d="M278.7 21.8652H273.494V340.474H278.7V21.8652Z" fill="white"/>
<path opacity="0.3" d="M278.7 21.8652V200.692L273.494 198.152V21.8652H278.7Z" fill="black"/>
<path d="M92.3249 21.8652H87.1189V376.916H92.3249V21.8652Z" fill="#82CCF2"/>
<path opacity="0.4" d="M92.3249 21.8652H87.1189V376.916H92.3249V21.8652Z" fill="white"/>
<path opacity="0.3" d="M87.1189 21.8652H92.3249V107.036L87.1189 104.495V21.8652Z" fill="black"/>
<path d="M281.512 24.0098H84.9116V80.1828H281.512V24.0098Z" fill="#82CCF2"/>
<path opacity="0.7" d="M281.512 24.0098H84.9116V80.1828H281.512V24.0098Z" fill="white"/>
<path d="M98.9574 66.1377H84.9116V80.1835H98.9574V66.1377Z" fill="#2E353A"/>
<path d="M98.9574 38.0557H84.9116V52.1015H98.9574V38.0557Z" fill="#2E353A"/>
<path d="M112.993 52.0918H98.947V66.1376H112.993V52.0918Z" fill="#2E353A"/>
<path d="M127.039 66.1377H112.993V80.1835H127.039V66.1377Z" fill="#2E353A"/>
<path d="M112.993 24.0098H98.947V38.0556H112.993V24.0098Z" fill="#2E353A"/>
<path d="M127.039 38.0557H112.993V52.1015H127.039V38.0557Z" fill="#2E353A"/>
<path d="M141.085 52.0918H127.039V66.1376H141.085V52.0918Z" fill="#2E353A"/>
<path d="M155.13 66.1377H141.085V80.1835H155.13V66.1377Z" fill="#2E353A"/>
<path d="M141.085 24.0098H127.039V38.0556H141.085V24.0098Z" fill="#2E353A"/>
<path d="M155.13 38.0557H141.085V52.1015H155.13V38.0557Z" fill="#2E353A"/>
<path d="M169.166 52.0918H155.12V66.1376H169.166V52.0918Z" fill="#2E353A"/>
<path d="M183.212 66.1377H169.166V80.1835H183.212V66.1377Z" fill="#2E353A"/>
<path d="M169.166 24.0098H155.12V38.0556H169.166V24.0098Z" fill="#2E353A"/>
<path d="M183.212 38.0557H169.166V52.1015H183.212V38.0557Z" fill="#2E353A"/>
<path d="M197.258 52.0918H183.212V66.1376H197.258V52.0918Z" fill="#2E353A"/>
<path d="M211.293 66.1377H197.247V80.1835H211.293V66.1377Z" fill="#2E353A"/>
<path d="M197.258 24.0098H183.212V38.0556H197.258V24.0098Z" fill="#2E353A"/>
<path d="M211.293 38.0557H197.247V52.1015H211.293V38.0557Z" fill="#2E353A"/>
<path d="M225.339 52.0918H211.293V66.1376H225.339V52.0918Z" fill="#2E353A"/>
<path d="M239.385 66.1377H225.339V80.1835H239.385V66.1377Z" fill="#2E353A"/>
<path d="M225.339 24.0098H211.293V38.0556H225.339V24.0098Z" fill="#2E353A"/>
<path d="M239.385 38.0557H225.339V52.1015H239.385V38.0557Z" fill="#2E353A"/>
<path d="M253.42 52.0918H239.374V66.1376H253.42V52.0918Z" fill="#2E353A"/>
<path d="M267.466 66.1377H253.42V80.1835H267.466V66.1377Z" fill="#2E353A"/>
<path d="M253.42 24.0098H239.374V38.0556H253.42V24.0098Z" fill="#2E353A"/>
<path d="M267.466 38.0557H253.42V52.1015H267.466V38.0557Z" fill="#2E353A"/>
<path d="M281.512 52.0918H267.466V66.1376H281.512V52.0918Z" fill="#2E353A"/>
<path d="M281.512 24.0098H267.466V38.0556H281.512V24.0098Z" fill="#2E353A"/>
<g opacity="0.1">
<path d="M98.9574 66.1367H84.9116V80.1826H98.9574V66.1367Z" fill="white"/>
<path d="M98.9574 38.0557H84.9116V52.1015H98.9574V38.0557Z" fill="white"/>
<path d="M112.993 52.0908H98.947V66.1367H112.993V52.0908Z" fill="white"/>
<path d="M127.039 66.1367H112.993V80.1826H127.039V66.1367Z" fill="white"/>
<path d="M112.993 24.0098H98.947V38.0556H112.993V24.0098Z" fill="white"/>
<path d="M127.039 38.0557H112.993V52.1015H127.039V38.0557Z" fill="white"/>
<path d="M141.085 52.0908H127.039V66.1367H141.085V52.0908Z" fill="white"/>
<path d="M155.13 66.1367H141.085V80.1826H155.13V66.1367Z" fill="white"/>
<path d="M141.085 24.0098H127.039V38.0556H141.085V24.0098Z" fill="white"/>
<path d="M155.13 38.0557H141.085V52.1015H155.13V38.0557Z" fill="white"/>
<path d="M169.166 52.0908H155.12V66.1367H169.166V52.0908Z" fill="white"/>
<path d="M183.212 66.1367H169.166V80.1826H183.212V66.1367Z" fill="white"/>
<path d="M169.166 24.0098H155.12V38.0556H169.166V24.0098Z" fill="white"/>
<path d="M183.212 38.0557H169.166V52.1015H183.212V38.0557Z" fill="white"/>
<path d="M197.258 52.0908H183.212V66.1367H197.258V52.0908Z" fill="white"/>
<path d="M211.293 66.1367H197.247V80.1826H211.293V66.1367Z" fill="white"/>
<path d="M197.258 24.0098H183.212V38.0556H197.258V24.0098Z" fill="white"/>
<path d="M211.293 38.0557H197.247V52.1015H211.293V38.0557Z" fill="white"/>
<path d="M225.339 52.0908H211.293V66.1367H225.339V52.0908Z" fill="white"/>
<path d="M239.385 66.1367H225.339V80.1826H239.385V66.1367Z" fill="white"/>
<path d="M225.339 24.0098H211.293V38.0556H225.339V24.0098Z" fill="white"/>
<path d="M239.385 38.0557H225.339V52.1015H239.385V38.0557Z" fill="white"/>
<path d="M253.42 52.0908H239.374V66.1367H253.42V52.0908Z" fill="white"/>
<path d="M267.466 66.1367H253.42V80.1826H267.466V66.1367Z" fill="white"/>
<path d="M253.42 24.0098H239.374V38.0556H253.42V24.0098Z" fill="white"/>
<path d="M267.466 38.0557H253.42V52.1015H267.466V38.0557Z" fill="white"/>
<path d="M281.512 52.0908H267.466V66.1367H281.512V52.0908Z" fill="white"/>
<path d="M281.512 24.0098H267.466V38.0556H281.512V24.0098Z" fill="white"/>
</g>
<path d="M277.66 125.986C276.614 123.759 274.891 121.919 272.736 120.732C270.582 119.544 268.106 119.069 265.665 119.374C256.294 120.239 247.267 132.035 238.771 129.609C230.274 127.183 231.326 121.821 231.326 121.821C231.326 121.821 228.202 129.516 238.791 135.982C249.38 142.448 263.78 126.132 275.733 130.984L277.66 125.986Z" fill="#2E353A"/>
<path d="M277.66 125.986C276.633 123.291 274.864 120.942 272.556 119.211C270.249 117.481 267.499 116.44 264.624 116.21C254.607 115.429 248.745 128.09 241.072 125.986" stroke="#263238" stroke-width="0.480026" stroke-linecap="round" stroke-linejoin="round"/>
<path d="M300.691 140.198C300.691 140.198 304.252 125.496 291.914 122.498C279.575 119.499 274.015 126.767 271.933 134.774C269.851 142.78 275.057 153.932 286.27 152.089C297.484 150.246 300.243 143.686 300.691 140.198Z" fill="#2E353A"/>
<path d="M305.262 163.042C315.403 158.325 328.73 147.997 328.481 144.238C328.231 140.479 318.006 115.188 318.006 115.188C317.165 114.945 316.37 114.565 315.653 114.064C314.612 113.314 313.394 104.006 314.903 103.506C317.462 102.863 320.071 102.441 322.702 102.246C323.951 102.246 323.452 110.576 322.952 112.554C322.952 112.554 339.174 135.169 338.101 145.998C337.029 156.826 311.884 175.641 303.086 178.275C294.287 180.909 305.262 163.042 305.262 163.042Z" fill="#E4897B"/>
<path d="M195.206 286.228L198.08 280.105L207.066 283.104L215.312 285.874L213.084 293.693L203.609 289.747L195.206 286.228Z" fill="#E4897B"/>
<path d="M199.09 278.981C199.757 279.314 195.331 287.311 195.331 287.311C195.331 287.311 187.741 289.976 184.253 294.38C180.765 298.785 179.047 294.62 181.692 289.081L188.116 275.431C189.98 271.495 192.166 275.535 199.09 278.981Z" fill="#2E353A"/>
<path d="M191.989 292.172C191.927 292.182 191.864 292.182 191.802 292.172C191.623 292.163 191.451 292.099 191.309 291.99C191.168 291.88 191.063 291.729 191.01 291.558C190.719 290.413 193.301 288.226 193.822 287.799C193.85 287.772 193.887 287.754 193.926 287.747V287.747C193.978 287.753 194.027 287.771 194.071 287.799C194.144 287.872 195.748 289.475 195.685 290.819C195.675 291.02 195.623 291.217 195.531 291.396C195.44 291.576 195.311 291.734 195.154 291.86C195.037 291.991 194.881 292.082 194.709 292.12C194.537 292.157 194.358 292.139 194.196 292.068C193.78 291.839 193.613 291.027 193.572 290.204C193.393 290.876 193.033 291.485 192.53 291.964C192.373 292.083 192.186 292.155 191.989 292.172ZM193.603 288.601C192.51 289.58 191.343 290.881 191.52 291.423C191.52 291.423 191.573 291.61 191.937 291.683C192.007 291.693 192.077 291.689 192.145 291.671C192.213 291.653 192.277 291.622 192.333 291.579C192.916 291.141 193.374 289.621 193.603 288.601ZM194.165 288.528C194.051 289.975 194.165 291.464 194.509 291.652C194.613 291.714 194.811 291.568 194.915 291.485C195.024 291.401 195.113 291.294 195.176 291.172C195.239 291.049 195.274 290.915 195.279 290.777C195.153 289.929 194.764 289.142 194.165 288.528V288.528Z" fill="#82CCF2"/>
<path opacity="0.2" d="M203.422 289.653L206.899 283.031L215.229 285.832L213.042 293.672L203.422 289.653Z" fill="black"/>
<path d="M300.691 245.537C296.922 261.863 280.065 317.578 253.837 315.496C227.609 313.413 208.419 298.982 207.899 292.402C207.378 285.821 209.398 282.198 215.937 282.177C222.476 282.156 241.665 288.049 250.026 287.456C258.387 286.863 266.206 251.357 266.206 251.357L300.691 245.537Z" fill="#82CCF2"/>
<path opacity="0.4" d="M300.691 245.537C296.922 261.863 280.065 317.578 253.837 315.496C227.609 313.413 208.419 298.982 207.899 292.402C207.378 285.821 209.398 282.198 215.937 282.177C222.476 282.156 241.665 288.049 250.026 287.456C258.387 286.863 266.206 251.357 266.206 251.357L300.691 245.537Z" fill="black"/>
<path d="M367.588 362.381L361.372 365.067L356.624 356.863L352.272 349.335L359.123 344.951L363.601 354.176L367.588 362.381Z" fill="#E4897B"/>
<path d="M359.915 365.244C359.633 364.557 368.244 361.454 368.244 361.454C368.244 361.454 375.689 364.484 381.228 363.537C386.767 362.589 385.257 366.775 379.635 369.201L365.745 375.198C361.747 376.916 362.778 372.408 359.915 365.244Z" fill="#2E353A"/>
<path d="M370.327 362.246C370.113 362.266 369.901 362.297 369.691 362.34H369.556C369.477 362.315 369.403 362.276 369.337 362.225V362.142C369.346 362.122 369.346 362.099 369.337 362.079C369.337 362.079 369.337 362.079 369.337 362.017C369.337 362.017 369.389 361.954 369.389 361.923C369.389 361.83 369.275 359.56 370.212 358.591C370.353 358.44 370.527 358.322 370.719 358.246C370.912 358.17 371.12 358.139 371.326 358.154C371.798 358.154 372.09 358.31 372.201 358.623C372.367 359.07 371.961 359.768 371.43 360.434C372.021 360.052 372.705 359.839 373.409 359.82C373.681 359.848 373.932 359.983 374.106 360.195C374.235 360.331 374.321 360.503 374.355 360.688C374.388 360.872 374.367 361.063 374.294 361.236C373.794 362.079 371.493 362.246 370.327 362.246ZM373.242 360.289C372.197 360.511 371.222 360.982 370.399 361.663C371.868 361.663 373.606 361.444 373.867 360.955C373.867 360.955 373.95 360.778 373.731 360.486C373.687 360.429 373.63 360.383 373.565 360.35C373.5 360.318 373.429 360.3 373.356 360.299L373.242 360.289ZM371.295 358.206C371.014 358.206 370.785 358.529 370.597 358.727C370.117 359.484 369.888 360.373 369.941 361.267C370.983 360.226 371.899 358.914 371.753 358.529C371.711 358.448 371.652 358.377 371.58 358.321C371.509 358.266 371.425 358.226 371.337 358.206H371.295Z" fill="#82CCF2"/>
<path opacity="0.2" d="M363.684 354.374L356.697 357.04L352.303 349.418L359.144 344.993L363.684 354.374Z" fill="black"/>
<path d="M269.028 213.155C269.028 213.155 254.451 234.792 257.46 250.909C261 269.932 306.813 291.35 319.308 300.814C331.802 310.279 337.654 346.023 353.209 352.875L361.674 349.845C361.674 349.845 365.985 343.889 362.768 333.758C349.232 291.277 338.049 270.973 300.691 245.537C300.691 245.537 303.148 224.942 302.117 214.509L269.028 213.155Z" fill="#82CCF2"/>
<path opacity="0.3" d="M269.028 213.155C269.028 213.155 254.451 234.792 257.46 250.909C261 269.932 306.813 291.35 319.308 300.814C331.802 310.279 337.654 346.023 353.209 352.875L361.674 349.845C361.674 349.845 365.985 343.889 362.768 333.758C349.232 291.277 338.049 270.973 300.691 245.537C300.691 245.537 303.148 224.942 302.117 214.509L269.028 213.155Z" fill="black"/>
<path d="M357.187 351.448L355.104 352.198C350.377 346.18 346.514 335.33 342.464 323.939C338.164 311.872 333.718 299.398 328.481 294.442C324.836 290.996 316.757 285.571 307.396 279.282C288.29 266.444 266.623 251.899 265.175 243.027C263.645 233.594 268.466 220.121 271.35 213.249L273.578 213.343C270.839 219.829 265.738 233.553 267.237 242.694C268.538 250.67 291.664 266.215 308.552 277.554C317.996 283.895 326.138 289.361 329.917 292.932C335.509 298.232 339.84 310.373 344.421 323.242C348.378 334.352 352.46 345.815 357.187 351.448Z" fill="#82CCF2"/>
<path opacity="0.1" d="M300.691 245.537C300.691 245.537 293.017 240.518 283.386 234.271L297.442 239.904C300.296 233.497 301.957 226.624 302.346 219.621C302.25 228.283 301.698 236.933 300.691 245.537V245.537Z" fill="black"/>
<path d="M269.028 213.155L302.346 216.571C302.346 216.571 310.291 185.959 310.489 160.262C310.489 160.262 297.723 164.427 286.249 163.032C274.775 161.637 264.623 155.66 264.623 155.66C264.623 155.66 270.027 189.177 269.028 213.155Z" fill="#2E353A"/>
<path d="M289.592 169.716C281.658 167.634 279.669 163.906 279.669 163.906C285.406 159.741 282.22 150.818 282.22 150.818L291.705 153.869C291.301 155.191 290.998 156.541 290.799 157.909C289.977 163.792 292.632 164.156 292.632 164.156C293.923 167.634 289.592 169.716 289.592 169.716Z" fill="#E4897B"/>
<path opacity="0.2" d="M291.705 153.869C291.301 155.191 290.998 156.541 290.799 157.909C284.24 157.066 282.22 150.818 282.22 150.818L291.705 153.869Z" fill="black"/>
<path d="M289.8 126.039C298.296 126.653 300.701 131.401 300.691 140.199C300.691 151.204 297.692 158.805 287.228 155.702C273.026 151.475 275.681 125.018 289.8 126.039Z" fill="#E4897B"/>
<path d="M295.235 139.334C295.82 140.652 296.565 141.894 297.453 143.03C297.178 143.363 296.817 143.614 296.409 143.755C296.002 143.897 295.563 143.923 295.141 143.832L295.235 139.334Z" fill="#DE5753"/>
<path d="M290.081 138.262C290.081 138.959 289.644 139.501 289.175 139.48C288.707 139.459 288.363 138.876 288.394 138.178C288.425 137.481 288.832 136.929 289.3 136.95C289.769 136.971 290.154 137.554 290.081 138.262Z" fill="#2E353A"/>
<path d="M289.113 136.971L290.664 136.45C290.664 136.45 289.831 137.7 289.113 136.971Z" fill="#2E353A"/>
<path d="M298.786 138.533C298.786 139.241 298.338 139.782 297.88 139.761C297.422 139.74 297.057 139.157 297.088 138.46C297.12 137.762 297.536 137.21 297.994 137.231C298.452 137.252 298.817 137.835 298.786 138.533Z" fill="#2E353A"/>
<path d="M297.807 137.252L299.348 136.731C299.348 136.731 298.536 137.97 297.807 137.252Z" fill="#2E353A"/>
<path d="M290.425 132.379C289.757 132.252 289.069 132.28 288.414 132.46C287.759 132.641 287.154 132.969 286.645 133.42" stroke="#263238" stroke-width="0.69573" stroke-linecap="round" stroke-linejoin="round"/>
<path d="M296.62 132.473C297.211 132.368 297.819 132.397 298.398 132.56C298.976 132.722 299.511 133.012 299.962 133.41" stroke="#263238" stroke-width="0.69573" stroke-linecap="round" stroke-linejoin="round"/>
<path d="M293.663 147.091C293.189 148.017 292.785 148.978 292.455 149.965C292.273 149.944 292.092 149.913 291.913 149.871C289.456 149.444 288.457 148.434 288.092 147.445C287.933 146.958 287.887 146.442 287.957 145.935C287.989 145.645 288.063 145.361 288.175 145.092C289.576 146.025 291.159 146.65 292.819 146.924C293.329 147.039 293.663 147.091 293.663 147.091Z" fill="#2E353A"/>
<path d="M292.819 146.924L292.444 147.768C290.133 147.362 288.561 146.726 287.957 145.935C287.989 145.645 288.062 145.361 288.175 145.092C289.576 146.025 291.159 146.65 292.819 146.924Z" fill="white"/>
<path d="M291.914 149.871C289.456 149.444 288.457 148.434 288.092 147.445C289.026 147.632 289.918 147.984 290.727 148.487C291.258 148.812 291.673 149.297 291.914 149.871V149.871Z" fill="#DE5753"/>
<path d="M279.471 139.688C279.471 139.688 283.948 132.993 283.74 127.558C283.74 127.558 301.076 121.894 300.67 139.011C300.67 139.011 303.419 123.945 288.832 122.55C274.244 121.154 272.766 142.541 279.846 149.454C279.846 149.496 276.702 143.873 279.471 139.688Z" fill="#2E353A"/>
<path d="M280.783 141.604C280.772 140.614 280.369 139.669 279.663 138.976C278.956 138.283 278.004 137.899 277.014 137.907C274.359 138.001 272.714 143.322 279.169 145.092C280.044 145.321 280.648 144.446 280.783 141.604Z" fill="#E4897B"/>
<path d="M264.644 155.66C264.644 155.66 270.621 165.708 267.383 176.609C267.383 176.609 244.341 150.965 242.258 145.113C240.176 139.261 255.18 105.943 255.18 105.943C255.18 105.943 252.67 98.9147 253.191 97.3529C253.712 95.7911 260.219 92.1469 261.781 93.1881C263.343 94.2293 262.822 105.683 262.041 107.244L261.26 108.806C261.26 108.806 253.243 139.001 254.253 141.198C255.263 143.395 264.644 155.66 264.644 155.66Z" fill="#E4897B"/>
<path d="M294.454 125.986C294.454 125.986 285.333 139.646 273.224 137.439C273.224 137.439 272.631 127.089 280.731 124.82C285.283 123.413 290.205 123.831 294.454 125.986V125.986Z" fill="#2E353A"/>
<path d="M292.819 125.986C292.819 125.986 296.62 131.692 286.27 135.472" stroke="#263238" stroke-width="0.480026" stroke-linecap="round" stroke-linejoin="round"/>
<path d="M296.786 125.58C296.786 125.58 301.149 129.578 302.95 123.852" stroke="#263238" stroke-width="0.480026" stroke-linecap="round" stroke-linejoin="round"/>
<path d="M304.824 205.805L305.772 204.212C305.772 204.212 304.606 203.858 302.586 203.39C303.44 197.569 306.053 175.548 299.67 161.262L298.483 162.168C298.483 162.168 301.44 166.698 301.742 175.579L279.669 175.444C279.669 175.444 277.139 163.085 274.005 159.284L273.213 159.649C277.931 172.96 279.52 187.179 277.857 201.203C274.374 201.405 270.913 201.889 267.508 202.65L268.351 204.212C274.572 203.507 280.836 203.256 287.093 203.462L298.692 204.504C300.743 204.858 302.815 205.274 304.824 205.805Z" fill="#82CCF2"/>
<path opacity="0.6" d="M304.824 205.805L305.772 204.212C305.772 204.212 304.606 203.858 302.586 203.39C303.44 197.569 306.053 175.548 299.67 161.262L298.483 162.168C298.483 162.168 301.44 166.698 301.742 175.579L279.669 175.444C279.669 175.444 277.139 163.085 274.005 159.284L273.213 159.649C277.931 172.96 279.52 187.179 277.857 201.203C274.374 201.405 270.913 201.889 267.508 202.65L268.351 204.212C274.572 203.507 280.836 203.256 287.093 203.462L298.692 204.504C300.743 204.858 302.815 205.274 304.824 205.805Z" fill="white"/>
<path d="M291.726 191.707C291.795 192.72 291.491 193.724 290.872 194.529C290.528 194.873 290.114 195.138 289.657 195.305C289.2 195.472 288.712 195.538 288.228 195.497C287.759 195.532 287.289 195.466 286.848 195.302C286.408 195.139 286.008 194.882 285.677 194.55C285.054 193.786 284.745 192.815 284.812 191.832V191.457H287.03V191.978C286.986 192.377 287.102 192.778 287.353 193.092C287.467 193.202 287.603 193.288 287.751 193.343C287.9 193.399 288.059 193.423 288.217 193.415C288.391 193.426 288.566 193.398 288.728 193.333C288.89 193.268 289.036 193.168 289.154 193.04C289.422 192.619 289.539 192.12 289.487 191.624V188.958C289.312 189.359 289.019 189.698 288.647 189.928C288.275 190.159 287.842 190.271 287.405 190.249C287.042 190.274 286.678 190.21 286.346 190.061C286.013 189.912 285.723 189.683 285.5 189.396C285.027 188.659 284.804 187.79 284.864 186.917V184.294C284.801 183.306 285.122 182.332 285.76 181.576C286.484 180.952 287.407 180.609 288.363 180.609C289.318 180.609 290.242 180.952 290.966 181.576C291.604 182.332 291.925 183.306 291.861 184.294L291.726 191.707ZM288.248 188.167C288.407 188.175 288.565 188.151 288.714 188.095C288.863 188.04 288.998 187.954 289.113 187.844C289.363 187.53 289.479 187.129 289.435 186.73V184.106C289.457 183.91 289.439 183.712 289.384 183.522C289.329 183.333 289.236 183.156 289.113 183.003C288.87 182.801 288.564 182.691 288.248 182.691C287.933 182.691 287.627 182.801 287.384 183.003C287.26 183.156 287.168 183.333 287.113 183.522C287.057 183.712 287.04 183.91 287.061 184.106V186.73C287.017 187.129 287.134 187.53 287.384 187.844C287.498 187.954 287.634 188.04 287.783 188.095C287.931 188.151 288.09 188.175 288.248 188.167V188.167Z" fill="#82CCF2"/>
<path d="M299.972 191.707C300.041 192.72 299.738 193.724 299.119 194.529C298.775 194.873 298.36 195.138 297.903 195.305C297.447 195.472 296.959 195.538 296.474 195.497C296.006 195.532 295.535 195.466 295.095 195.302C294.655 195.139 294.255 194.882 293.923 194.55C293.301 193.786 292.992 192.815 293.059 191.832V191.457H295.225V191.978C295.181 192.377 295.297 192.778 295.547 193.092C295.661 193.202 295.797 193.288 295.946 193.343C296.095 193.399 296.253 193.423 296.412 193.415C296.586 193.426 296.76 193.398 296.922 193.333C297.084 193.268 297.23 193.168 297.349 193.04C297.616 192.619 297.734 192.12 297.682 191.624V188.958C297.507 189.359 297.214 189.698 296.842 189.928C296.47 190.159 296.037 190.271 295.599 190.249C295.236 190.274 294.872 190.21 294.54 190.061C294.208 189.912 293.917 189.683 293.694 189.396C293.222 188.659 292.999 187.79 293.059 186.917V184.294C292.995 183.306 293.316 182.332 293.954 181.576C294.678 180.952 295.602 180.609 296.557 180.609C297.513 180.609 298.436 180.952 299.16 181.576C299.798 182.332 300.119 183.306 300.056 184.294L299.972 191.707ZM296.495 188.167C296.653 188.175 296.812 188.151 296.961 188.095C297.109 188.04 297.245 187.954 297.359 187.844C297.61 187.53 297.726 187.129 297.682 186.73V184.106C297.703 183.91 297.686 183.712 297.63 183.522C297.575 183.333 297.483 183.156 297.359 183.003C297.116 182.801 296.81 182.691 296.495 182.691C296.179 182.691 295.874 182.801 295.631 183.003C295.507 183.156 295.415 183.333 295.359 183.522C295.304 183.712 295.286 183.91 295.308 184.106V186.73C295.264 187.129 295.38 187.53 295.631 187.844C295.745 187.954 295.88 188.04 296.029 188.095C296.178 188.151 296.336 188.175 296.495 188.167V188.167Z" fill="#82CCF2"/>
<path d="M455.705 186.376C453.623 185.689 415.098 169.602 365.224 184.72C352.261 188.646 338.518 193.612 325.232 198.423L314.424 202.317C312.404 203.035 308.833 204.399 308.531 206.482L311.8 214.332C318.506 212 321.89 210.73 328.772 208.241C341.933 203.483 355.552 198.558 368.254 194.706C393.242 187.082 419.887 186.757 445.054 193.769L447.896 191.946L446.511 189.5H450.333L446.511 186.376H455.705Z" fill="#82CCF2"/>
<path d="M309.76 216.571C309.76 216.571 327.377 217.383 333.02 220.559L333.187 212.021C333.187 212.021 333.103 211.501 331.51 211.469C326.075 211.355 314.153 210.293 311.342 208.825C304.949 205.503 314.258 202.369 314.258 202.369C314.258 202.369 308.375 204.212 308.531 206.44C308.531 206.44 310.28 212.844 309.76 216.571Z" fill="#82CCF2"/>
<path opacity="0.3" d="M309.76 216.571C309.76 216.571 327.377 217.383 333.02 220.559L333.187 212.021C333.187 212.021 333.103 211.501 331.51 211.469C326.075 211.355 314.153 210.293 311.342 208.825C304.949 205.503 314.258 202.369 314.258 202.369C314.258 202.369 308.375 204.212 308.531 206.44C308.531 206.44 310.28 212.844 309.76 216.571Z" fill="black"/>
<path d="M334.759 220.871C334.853 221.283 334.788 221.716 334.575 222.081C334.362 222.447 334.019 222.717 333.614 222.839C328.3 224.297 322.807 224.998 317.298 224.921C293.642 224.921 263.978 214.197 232.96 202.973C219.8 198.214 206.181 193.29 193.478 189.437C168.49 181.814 141.845 181.489 116.679 188.5L113.836 186.678L115.231 184.294H111.41L115.231 181.17H105.861C107.943 180.483 146.54 164.396 196.445 179.514C209.419 183.44 223.204 188.406 236.49 193.217C272.516 206.253 312.758 217.435 331.864 212.489C333.083 212.177 332.968 211.844 332.656 211.667C332.499 211.591 332.33 211.541 332.156 211.521C333.072 211.573 333.197 211.938 333.26 212.271C333.568 215.168 334.069 218.041 334.759 220.871Z" fill="#82CCF2"/>
</svg>
