<svg width="104" height="104" viewBox="0 0 104 104" fill="none" xmlns="http://www.w3.org/2000/svg">
<path d="M95.4201 72.8868L81.8568 41.1668C79.3868 35.3602 75.7034 32.0668 71.5001 31.8502C67.3401 31.6335 63.3101 34.5368 60.2334 40.0835L52.0001 54.8602C50.2668 57.9802 47.7968 59.8435 45.1101 60.0602C42.3801 60.3202 39.6501 58.8902 37.4401 56.0735L36.4868 54.8602C33.4101 51.0035 29.5968 49.1402 25.6968 49.5302C21.7968 49.9202 18.4601 52.6068 16.2501 56.9835L8.75344 71.9335C6.06677 77.3502 6.32678 83.6335 9.49011 88.7468C12.6534 93.8602 18.1568 96.9368 24.1801 96.9368H79.4734C85.2801 96.9368 90.6968 94.0335 93.9034 89.1802C97.1968 84.3268 97.7168 78.2168 95.4201 72.8868Z" fill="white"/>
<path d="M30.2033 36.3129C38.2924 36.3129 44.85 29.7553 44.85 21.6662C44.85 13.5771 38.2924 7.01953 30.2033 7.01953C22.1142 7.01953 15.5566 13.5771 15.5566 21.6662C15.5566 29.7553 22.1142 36.3129 30.2033 36.3129Z" fill="white"/>
</svg>
