<svg width="40" height="40" viewBox="0 0 40 40" fill="none" xmlns="http://www.w3.org/2000/svg">
<path d="M26.9833 3.33325H13.0166C6.94992 3.33325 3.33325 6.94992 3.33325 13.0166V26.9666C3.33325 33.0499 6.94992 36.6666 13.0166 36.6666H26.9666C33.0333 36.6666 36.6499 33.0499 36.6499 26.9833V13.0166C36.6666 6.94992 33.0499 3.33325 26.9833 3.33325ZM19.9999 26.4666C16.4333 26.4666 13.5333 23.5666 13.5333 19.9999C13.5333 16.4333 16.4333 13.5333 19.9999 13.5333C23.5666 13.5333 26.4666 16.4333 26.4666 19.9999C26.4666 23.5666 23.5666 26.4666 19.9999 26.4666ZM29.8666 11.4666C29.7833 11.6666 29.6666 11.8499 29.5166 12.0166C29.3499 12.1666 29.1666 12.2833 28.9666 12.3666C28.7666 12.4499 28.5499 12.4999 28.3333 12.4999C27.8833 12.4999 27.4666 12.3333 27.1499 12.0166C26.9999 11.8499 26.8833 11.6666 26.7999 11.4666C26.7166 11.2666 26.6666 11.0499 26.6666 10.8333C26.6666 10.6166 26.7166 10.3999 26.7999 10.1999C26.8833 9.98325 26.9999 9.81659 27.1499 9.64992C27.5333 9.26659 28.1166 9.08325 28.6499 9.19992C28.7666 9.21659 28.8666 9.24992 28.9666 9.29992C29.0666 9.33325 29.1666 9.38325 29.2666 9.44992C29.3499 9.49992 29.4332 9.58325 29.5166 9.64992C29.6666 9.81659 29.7833 9.98325 29.8666 10.1999C29.9499 10.3999 29.9999 10.6166 29.9999 10.8333C29.9999 11.0499 29.9499 11.2666 29.8666 11.4666Z" fill="white"/>
</svg>
