<svg width="32" height="33" viewBox="0 0 32 33" fill="none" xmlns="http://www.w3.org/2000/svg">
<path d="M16 12.5003V3.16699L13.3333 5.83366" stroke="#4266B0" stroke-width="1.5" stroke-linecap="round" stroke-linejoin="round"/>
<path d="M16 3.16699L18.6667 5.83366" stroke="#4266B0" stroke-width="1.5" stroke-linecap="round" stroke-linejoin="round"/>
<path d="M2.64 17.833H8.52C9.02667 17.833 9.48 18.113 9.70667 18.5663L11.2667 21.6863C11.72 22.593 12.64 23.1663 13.6533 23.1663H18.36C19.3733 23.1663 20.2933 22.593 20.7467 21.6863L22.3067 18.5663C22.5333 18.113 23 17.833 23.4933 17.833H29.3067" stroke="#4266B0" stroke-width="1.5" stroke-linecap="round" stroke-linejoin="round"/>
<path d="M9.33334 7.33984C4.61334 8.03318 2.66667 10.8065 2.66667 16.4998V20.4998C2.66667 27.1665 5.33334 29.8332 12 29.8332H20C26.6667 29.8332 29.3333 27.1665 29.3333 20.4998V16.4998C29.3333 10.8065 27.3867 8.03318 22.6667 7.33984" stroke="#4266B0" stroke-width="1.5" stroke-linecap="round" stroke-linejoin="round"/>
</svg>
