<svg width="24" height="24" viewBox="0 0 24 24" fill="none" xmlns="http://www.w3.org/2000/svg">
<path d="M17.9998 7.15903C17.9398 7.14903 17.8698 7.14903 17.8098 7.15903C16.4298 7.10903 15.3298 5.97903 15.3298 4.57903C15.3298 3.14903 16.4798 1.99902 17.9098 1.99902C19.3398 1.99902 20.4898 3.15903 20.4898 4.57903C20.4798 5.97903 19.3798 7.10903 17.9998 7.15903Z" stroke="white" stroke-linecap="round" stroke-linejoin="round"/>
<path d="M16.9699 14.4392C18.3399 14.6692 19.8499 14.4292 20.9099 13.7192C22.3199 12.7792 22.3199 11.2392 20.9099 10.2992C19.8399 9.58919 18.3099 9.34918 16.9399 9.58918" stroke="white" stroke-linecap="round" stroke-linejoin="round"/>
<path d="M5.97023 7.15903C6.03023 7.14903 6.10023 7.14903 6.16023 7.15903C7.54023 7.10903 8.64023 5.97903 8.64023 4.57903C8.64023 3.14903 7.49023 1.99902 6.06023 1.99902C4.63023 1.99902 3.48022 3.15903 3.48022 4.57903C3.49022 5.97903 4.59023 7.10903 5.97023 7.15903Z" stroke="white" stroke-width="1.01105" stroke-linecap="round" stroke-linejoin="round"/>
<path d="M7.00018 14.4392C5.63018 14.6692 4.12019 14.4292 3.06019 13.7192C1.65019 12.7792 1.65019 11.2392 3.06019 10.2992C4.13019 9.58919 5.66018 9.34918 7.03018 9.58918" stroke="white" stroke-width="1.01105" stroke-linecap="round" stroke-linejoin="round"/>
<path d="M12.0001 14.6307C11.9401 14.6207 11.8701 14.6207 11.8101 14.6307C10.4301 14.5807 9.33008 13.4507 9.33008 12.0507C9.33008 10.6207 10.4801 9.4707 11.9101 9.4707C13.3401 9.4707 14.4901 10.6307 14.4901 12.0507C14.4801 13.4507 13.3801 14.5907 12.0001 14.6307Z" stroke="white" stroke-width="1.01105" stroke-linecap="round" stroke-linejoin="round"/>
<path d="M9.08997 17.7804C7.67997 18.7204 7.67997 20.2603 9.08997 21.2003C10.69 22.2703 13.31 22.2703 14.91 21.2003C16.32 20.2603 16.32 18.7204 14.91 17.7804C13.32 16.7204 10.69 16.7204 9.08997 17.7804Z" stroke="white" stroke-width="1.01105" stroke-linecap="round" stroke-linejoin="round"/>
</svg>
