<svg width="33" height="33" viewBox="0 0 33 33" fill="none" xmlns="http://www.w3.org/2000/svg">
<path d="M16.5 12.5003V3.16699L13.8333 5.83366" stroke="#4266B0" stroke-width="1.5" stroke-linecap="round" stroke-linejoin="round"/>
<path d="M16.5 3.16699L19.1667 5.83366" stroke="#4266B0" stroke-width="1.5" stroke-linecap="round" stroke-linejoin="round"/>
<path d="M3.14 17.833H9.02C9.52667 17.833 9.98 18.113 10.2067 18.5663L11.7667 21.6863C12.22 22.593 13.14 23.1663 14.1533 23.1663H18.86C19.8733 23.1663 20.7933 22.593 21.2467 21.6863L22.8067 18.5663C23.0333 18.113 23.5 17.833 23.9933 17.833H29.8067" stroke="#4266B0" stroke-width="1.5" stroke-linecap="round" stroke-linejoin="round"/>
<path d="M9.83334 7.33984C5.11334 8.03318 3.16667 10.8065 3.16667 16.4998V20.4998C3.16667 27.1665 5.83334 29.8332 12.5 29.8332H20.5C27.1667 29.8332 29.8333 27.1665 29.8333 20.4998V16.4998C29.8333 10.8065 27.8867 8.03318 23.1667 7.33984" stroke="#4266B0" stroke-width="1.5" stroke-linecap="round" stroke-linejoin="round"/>
</svg>
