<svg width="20" height="20" viewBox="0 0 20 20" fill="none" xmlns="http://www.w3.org/2000/svg">
<path d="M12.9833 10.0001C12.9833 11.6501 11.6499 12.9834 9.99993 12.9834C8.34993 12.9834 7.0166 11.6501 7.0166 10.0001C7.0166 8.35006 8.34993 7.01672 9.99993 7.01672C11.6499 7.01672 12.9833 8.35006 12.9833 10.0001Z" stroke="#0079BA" stroke-width="1.25" stroke-linecap="round" stroke-linejoin="round"/>
<path d="M9.99987 16.8914C12.9415 16.8914 15.6832 15.1581 17.5915 12.1581C18.3415 10.9831 18.3415 9.00806 17.5915 7.83306C15.6832 4.83306 12.9415 3.09973 9.99987 3.09973C7.0582 3.09973 4.31654 4.83306 2.4082 7.83306C1.6582 9.00806 1.6582 10.9831 2.4082 12.1581C4.31654 15.1581 7.0582 16.8914 9.99987 16.8914Z" stroke="#0079BA" stroke-width="1.25" stroke-linecap="round" stroke-linejoin="round"/>
</svg>
