<svg width="24" height="24" viewBox="0 0 24 24" fill="none" xmlns="http://www.w3.org/2000/svg">
<path d="M3.00012 9.10937V14.8794C3.00012 16.9994 3.00012 16.9994 5.00012 18.3494L10.5001 21.5294C11.3301 22.0094 12.6801 22.0094 13.5001 21.5294L19.0001 18.3494C21.0001 16.9994 21.0001 16.9994 21.0001 14.8894V9.10937C21.0001 6.99937 21.0001 6.99937 19.0001 5.64937L13.5001 2.46937C12.6801 1.98937 11.3301 1.98937 10.5001 2.46937L5.00012 5.64937C3.00012 6.99937 3.00012 6.99937 3.00012 9.10937Z" stroke="white" stroke-linecap="round" stroke-linejoin="round"/>
<path d="M12.0001 15C13.657 15 15.0001 13.6569 15.0001 12C15.0001 10.3431 13.657 9 12.0001 9C10.3433 9 9.00012 10.3431 9.00012 12C9.00012 13.6569 10.3433 15 12.0001 15Z" stroke="white" stroke-linecap="round" stroke-linejoin="round"/>
</svg>
