<svg width="20" height="20" viewBox="0 0 20 20" fill="none" xmlns="http://www.w3.org/2000/svg">
<path d="M6.66666 1.66699V4.16699" stroke="#B3B3B3" stroke-width="1.25" stroke-miterlimit="10" stroke-linecap="round" stroke-linejoin="round"/>
<path d="M13.3333 1.66699V4.16699" stroke="#B3B3B3" stroke-width="1.25" stroke-miterlimit="10" stroke-linecap="round" stroke-linejoin="round"/>
<path d="M2.91666 7.5752H17.0833" stroke="#B3B3B3" stroke-width="1.25" stroke-miterlimit="10" stroke-linecap="round" stroke-linejoin="round"/>
<path d="M18.3333 15.8333C18.3333 16.4583 18.1583 17.05 17.85 17.55C17.275 18.5167 16.2167 19.1667 15 19.1667C14.1583 19.1667 13.3917 18.8583 12.8083 18.3333C12.55 18.1167 12.325 17.85 12.15 17.55C11.8417 17.05 11.6667 16.4583 11.6667 15.8333C11.6667 13.9917 13.1583 12.5 15 12.5C16 12.5 16.8917 12.9417 17.5 13.6333C18.0167 14.225 18.3333 14.9917 18.3333 15.8333Z" stroke="#B3B3B3" stroke-width="1.25" stroke-miterlimit="10" stroke-linecap="round" stroke-linejoin="round"/>
<path d="M13.6999 15.8333L14.5249 16.6583L16.2999 15.0166" stroke="#B3B3B3" stroke-width="1.25" stroke-linecap="round" stroke-linejoin="round"/>
<path d="M17.5 7.08366V13.6336C16.8917 12.942 16 12.5003 15 12.5003C13.1583 12.5003 11.6667 13.992 11.6667 15.8337C11.6667 16.4587 11.8417 17.0503 12.15 17.5503C12.325 17.8503 12.55 18.117 12.8083 18.3337H6.66667C3.75 18.3337 2.5 16.667 2.5 14.167V7.08366C2.5 4.58366 3.75 2.91699 6.66667 2.91699H13.3333C16.25 2.91699 17.5 4.58366 17.5 7.08366Z" stroke="#B3B3B3" stroke-width="1.25" stroke-miterlimit="10" stroke-linecap="round" stroke-linejoin="round"/>
<path d="M9.99623 11.4167H10.0037" stroke="#B3B3B3" stroke-width="1.66667" stroke-linecap="round" stroke-linejoin="round"/>
<path d="M6.91193 11.4167H6.91941" stroke="#B3B3B3" stroke-width="1.66667" stroke-linecap="round" stroke-linejoin="round"/>
<path d="M6.91193 13.9167H6.91941" stroke="#B3B3B3" stroke-width="1.66667" stroke-linecap="round" stroke-linejoin="round"/>
</svg>
