<svg width="24" height="24" viewBox="0 0 24 24" fill="none" xmlns="http://www.w3.org/2000/svg">
<path d="M9.15994 10.87C9.05994 10.86 8.93994 10.86 8.82994 10.87C6.44994 10.79 4.55994 8.84 4.55994 6.44C4.55994 3.99 6.53994 2 8.99994 2C11.4499 2 13.4399 3.99 13.4399 6.44C13.4299 8.84 11.5399 10.79 9.15994 10.87Z" stroke="white" stroke-linecap="round" stroke-linejoin="round"/>
<path d="M16.4098 4C18.3498 4 19.9098 5.57 19.9098 7.5C19.9098 9.39 18.4098 10.93 16.5398 11C16.4598 10.99 16.3698 10.99 16.2798 11" stroke="white" stroke-linecap="round" stroke-linejoin="round"/>
<path d="M4.16034 14.56C1.74034 16.18 1.74034 18.82 4.16034 20.43C6.91034 22.27 11.4203 22.27 14.1703 20.43C16.5903 18.81 16.5903 16.17 14.1703 14.56C11.4303 12.73 6.92034 12.73 4.16034 14.56Z" stroke="white" stroke-width="1.01105" stroke-linecap="round" stroke-linejoin="round"/>
<path d="M18.3398 20C19.0598 19.85 19.7398 19.56 20.2998 19.13C21.8598 17.96 21.8598 16.03 20.2998 14.86C19.7498 14.44 19.0798 14.16 18.3698 14" stroke="white" stroke-width="1.01105" stroke-linecap="round" stroke-linejoin="round"/>
</svg>
