<svg width="24" height="24" viewBox="0 0 24 24" fill="none" xmlns="http://www.w3.org/2000/svg">
<path d="M3.16992 7.43945L11.9999 12.5494L20.7699 7.46942" stroke="white" stroke-linecap="round" stroke-linejoin="round"/>
<path d="M11.9999 21.6091V12.5391" stroke="white" stroke-linecap="round" stroke-linejoin="round"/>
<path d="M9.92999 2.47902L4.59 5.44906C3.38 6.11906 2.39001 7.79904 2.39001 9.17904V14.8291C2.39001 16.2091 3.38 17.889 4.59 18.559L9.92999 21.5291C11.07 22.1591 12.94 22.1591 14.08 21.5291L19.42 18.559C20.63 17.889 21.62 16.2091 21.62 14.8291V9.17904C21.62 7.79904 20.63 6.11906 19.42 5.44906L14.08 2.47902C12.93 1.83902 11.07 1.83902 9.92999 2.47902Z" stroke="white" stroke-width="1.01105" stroke-linecap="round" stroke-linejoin="round"/>
<path d="M17 13.2406V9.58063L7.51001 4.10059" stroke="white" stroke-width="1.01105" stroke-linecap="round" stroke-linejoin="round"/>
</svg>
