<svg width="62" height="66" viewBox="0 0 62 66" fill="none" xmlns="http://www.w3.org/2000/svg">
<path d="M14.3712 19.4301C16.4114 19.4301 18.0653 17.6961 18.0653 15.5572C18.0653 13.4182 16.4114 11.6843 14.3712 11.6843C12.3309 11.6843 10.677 13.4182 10.677 15.5572C10.677 17.6961 12.3309 19.4301 14.3712 19.4301Z" fill="#82CCF2"/>
<path d="M18.1206 52.7943H10.6777V23.5443C10.6777 23.5443 11.749 21.6382 14.3719 21.6388C17.2205 21.6388 18.0666 23.5443 18.0666 23.5443L18.1206 52.7943Z" fill="#82CCF2"/>
<path d="M25.4749 19.4301C27.5152 19.4301 29.1691 17.6961 29.1691 15.5572C29.1691 13.4182 27.5152 11.6843 25.4749 11.6843C23.4347 11.6843 21.7808 13.4182 21.7808 15.5572C21.7808 17.6961 23.4347 19.4301 25.4749 19.4301Z" fill="#82CCF2"/>
<path d="M29.1994 52.7943H21.78V23.5443C21.78 23.5443 22.8518 21.6382 25.4748 21.6388C28.3233 21.6388 29.1689 23.5443 29.1689 23.5443L29.1994 52.7943Z" fill="#82CCF2"/>
<path d="M36.5953 19.4301C38.6355 19.4301 40.2894 17.6961 40.2894 15.5572C40.2894 13.4182 38.6355 11.6843 36.5953 11.6843C34.5551 11.6843 32.9011 13.4182 32.9011 15.5572C32.9011 17.6961 34.5551 19.4301 36.5953 19.4301Z" fill="white"/>
<path d="M40.2898 52.7943H32.8584L32.9009 23.5443C32.9009 23.5443 33.9721 21.6382 36.595 21.6388C39.4436 21.6388 40.2898 23.5443 40.2898 23.5443V52.7943Z" fill="white"/>
<path d="M47.8245 19.4301C49.8648 19.4301 51.5187 17.6961 51.5187 15.5572C51.5187 13.4182 49.8648 11.6843 47.8245 11.6843C45.7843 11.6843 44.1304 13.4182 44.1304 15.5572C44.1304 17.6961 45.7843 19.4301 47.8245 19.4301Z" fill="#82CCF2"/>
<path d="M51.519 52.7943H43.9487L44.1307 23.5443C44.1307 23.5443 45.2019 21.6382 47.8249 21.6388C50.6734 21.6388 51.519 23.5443 51.519 23.5443V52.7943Z" fill="#82CCF2"/>
<path d="M38.2906 18.9986C38.5803 18.8416 38.849 18.6453 39.0897 18.4148L37.2527 15.7594L36.4651 16.3613L38.2906 18.9986Z" fill="#4266B0"/>
<path d="M36.5034 17.4368C37.5002 17.4368 38.3083 16.5896 38.3083 15.5446C38.3083 14.4995 37.5002 13.6523 36.5034 13.6523C35.5066 13.6523 34.6985 14.4995 34.6985 15.5446C34.6985 16.5896 35.5066 17.4368 36.5034 17.4368Z" fill="#4266B0"/>
</svg>
