<svg width="20" height="21" viewBox="0 0 20 21" fill="none" xmlns="http://www.w3.org/2000/svg">
<path d="M7.49999 18.8337H12.5C16.6667 18.8337 18.3333 17.167 18.3333 13.0003V8.00033C18.3333 3.83366 16.6667 2.16699 12.5 2.16699H7.49999C3.33332 2.16699 1.66666 3.83366 1.66666 8.00033V13.0003C1.66666 17.167 3.33332 18.8337 7.49999 18.8337Z" stroke="#B3B3B3" stroke-width="1.5" stroke-linecap="round" stroke-linejoin="round"/>
<path d="M12.9167 8.625C13.607 8.625 14.1667 8.06536 14.1667 7.375C14.1667 6.68464 13.607 6.125 12.9167 6.125C12.2263 6.125 11.6667 6.68464 11.6667 7.375C11.6667 8.06536 12.2263 8.625 12.9167 8.625Z" stroke="#B3B3B3" stroke-width="1.5" stroke-miterlimit="10" stroke-linecap="round" stroke-linejoin="round"/>
<path d="M7.08334 8.625C7.7737 8.625 8.33334 8.06536 8.33334 7.375C8.33334 6.68464 7.7737 6.125 7.08334 6.125C6.39299 6.125 5.83334 6.68464 5.83334 7.375C5.83334 8.06536 6.39299 8.625 7.08334 8.625Z" stroke="#B3B3B3" stroke-width="1.5" stroke-miterlimit="10" stroke-linecap="round" stroke-linejoin="round"/>
<path d="M7 11.583H13C13.4167 11.583 13.75 11.9163 13.75 12.333C13.75 14.408 12.075 16.083 10 16.083C7.925 16.083 6.25 14.408 6.25 12.333C6.25 11.9163 6.58333 11.583 7 11.583Z" stroke="#B3B3B3" stroke-width="1.5" stroke-miterlimit="10" stroke-linecap="round" stroke-linejoin="round"/>
</svg>
