<svg width="20" height="20" viewBox="0 0 20 20" fill="none" xmlns="http://www.w3.org/2000/svg">
<path d="M16.4917 12.4416C14.775 14.1499 12.3167 14.6749 10.1583 13.9999L6.23334 17.9166C5.95001 18.2083 5.39168 18.3833 4.99168 18.3249L3.17501 18.0749C2.57501 17.9916 2.01668 17.4249 1.92501 16.8249L1.67501 15.0083C1.61668 14.6083 1.80834 14.0499 2.08334 13.7666L6.00001 9.84994C5.33334 7.68327 5.85001 5.22494 7.56668 3.5166C10.025 1.05827 14.0167 1.05827 16.4833 3.5166C18.95 5.97494 18.95 9.98327 16.4917 12.4416Z" stroke="#B3B3B3" stroke-width="1.5" stroke-miterlimit="10" stroke-linecap="round" stroke-linejoin="round"/>
<path d="M5.74167 14.5752L7.65833 16.4919" stroke="#B3B3B3" stroke-width="1.5" stroke-miterlimit="10" stroke-linecap="round" stroke-linejoin="round"/>
<path d="M12.0833 9.16699C12.7737 9.16699 13.3333 8.60735 13.3333 7.91699C13.3333 7.22664 12.7737 6.66699 12.0833 6.66699C11.393 6.66699 10.8333 7.22664 10.8333 7.91699C10.8333 8.60735 11.393 9.16699 12.0833 9.16699Z" stroke="#B3B3B3" stroke-width="1.5" stroke-linecap="round" stroke-linejoin="round"/>
</svg>
