<svg width="24" height="24" viewBox="0 0 24 24" fill="none" xmlns="http://www.w3.org/2000/svg">
<path d="M18.0001 7.15903C17.9401 7.14903 17.8701 7.14903 17.8101 7.15903C16.4301 7.10903 15.3301 5.97903 15.3301 4.57903C15.3301 3.14903 16.4801 1.99902 17.9101 1.99902C19.3401 1.99902 20.4901 3.15903 20.4901 4.57903C20.4801 5.97903 19.3801 7.10903 18.0001 7.15903Z" stroke="white" stroke-linecap="round" stroke-linejoin="round"/>
<path d="M16.9701 14.4392C18.3401 14.6692 19.8501 14.4292 20.9101 13.7192C22.3201 12.7792 22.3201 11.2392 20.9101 10.2992C19.8401 9.58919 18.3101 9.34918 16.9401 9.58918" stroke="white" stroke-linecap="round" stroke-linejoin="round"/>
<path d="M5.96998 7.15903C6.02998 7.14903 6.09998 7.14903 6.15998 7.15903C7.53998 7.10903 8.63998 5.97903 8.63998 4.57903C8.63998 3.14903 7.48998 1.99902 6.05998 1.99902C4.62998 1.99902 3.47998 3.15903 3.47998 4.57903C3.48998 5.97903 4.58998 7.10903 5.96998 7.15903Z" stroke="white" stroke-width="1.01105" stroke-linecap="round" stroke-linejoin="round"/>
<path d="M6.99994 14.4392C5.62994 14.6692 4.11994 14.4292 3.05994 13.7192C1.64994 12.7792 1.64994 11.2392 3.05994 10.2992C4.12994 9.58919 5.65994 9.34918 7.02994 9.58918" stroke="white" stroke-width="1.01105" stroke-linecap="round" stroke-linejoin="round"/>
<path d="M12 14.6307C11.94 14.6207 11.87 14.6207 11.81 14.6307C10.43 14.5807 9.32996 13.4507 9.32996 12.0507C9.32996 10.6207 10.48 9.4707 11.91 9.4707C13.34 9.4707 14.49 10.6307 14.49 12.0507C14.48 13.4507 13.38 14.5907 12 14.6307Z" stroke="white" stroke-width="1.01105" stroke-linecap="round" stroke-linejoin="round"/>
<path d="M9.08997 17.7804C7.67997 18.7204 7.67997 20.2603 9.08997 21.2003C10.69 22.2703 13.31 22.2703 14.91 21.2003C16.32 20.2603 16.32 18.7204 14.91 17.7804C13.32 16.7204 10.69 16.7204 9.08997 17.7804Z" stroke="white" stroke-width="1.01105" stroke-linecap="round" stroke-linejoin="round"/>
</svg>
