<svg width="24" height="24" viewBox="0 0 24 24" fill="none" xmlns="http://www.w3.org/2000/svg">
<path d="M18 7.15903C17.94 7.14903 17.87 7.14903 17.81 7.15903C16.43 7.10903 15.33 5.97903 15.33 4.57903C15.33 3.14903 16.48 1.99902 17.91 1.99902C19.34 1.99902 20.49 3.15903 20.49 4.57903C20.48 5.97903 19.38 7.10903 18 7.15903Z" stroke="white" stroke-linecap="round" stroke-linejoin="round"/>
<path d="M16.9701 14.4392C18.3401 14.6692 19.8501 14.4292 20.9101 13.7192C22.3201 12.7792 22.3201 11.2392 20.9101 10.2992C19.8401 9.58919 18.3101 9.34918 16.9401 9.58918" stroke="white" stroke-linecap="round" stroke-linejoin="round"/>
<path d="M5.9701 7.15903C6.0301 7.14903 6.1001 7.14903 6.1601 7.15903C7.5401 7.10903 8.6401 5.97903 8.6401 4.57903C8.6401 3.14903 7.4901 1.99902 6.0601 1.99902C4.6301 1.99902 3.4801 3.15903 3.4801 4.57903C3.4901 5.97903 4.5901 7.10903 5.9701 7.15903Z" stroke="white" stroke-width="1.01105" stroke-linecap="round" stroke-linejoin="round"/>
<path d="M7.00006 14.4392C5.63006 14.6692 4.12006 14.4292 3.06006 13.7192C1.65006 12.7792 1.65006 11.2392 3.06006 10.2992C4.13006 9.58919 5.66006 9.34918 7.03006 9.58918" stroke="white" stroke-width="1.01105" stroke-linecap="round" stroke-linejoin="round"/>
<path d="M12.0001 14.6307C11.9401 14.6207 11.8701 14.6207 11.8101 14.6307C10.4301 14.5807 9.33008 13.4507 9.33008 12.0507C9.33008 10.6207 10.4801 9.4707 11.9101 9.4707C13.3401 9.4707 14.4901 10.6307 14.4901 12.0507C14.4801 13.4507 13.3801 14.5907 12.0001 14.6307Z" stroke="white" stroke-width="1.01105" stroke-linecap="round" stroke-linejoin="round"/>
<path d="M9.08997 17.7804C7.67997 18.7204 7.67997 20.2603 9.08997 21.2003C10.69 22.2703 13.31 22.2703 14.91 21.2003C16.32 20.2603 16.32 18.7204 14.91 17.7804C13.32 16.7204 10.69 16.7204 9.08997 17.7804Z" stroke="white" stroke-width="1.01105" stroke-linecap="round" stroke-linejoin="round"/>
</svg>
