<svg width="20" height="21" viewBox="0 0 20 21" fill="none" xmlns="http://www.w3.org/2000/svg">
<path d="M6.66663 2.16699V4.66699" stroke="#B3B3B3" stroke-width="1.25" stroke-miterlimit="10" stroke-linecap="round" stroke-linejoin="round"/>
<path d="M13.3334 2.16699V4.66699" stroke="#B3B3B3" stroke-width="1.25" stroke-miterlimit="10" stroke-linecap="round" stroke-linejoin="round"/>
<path d="M2.91663 8.0752H17.0833" stroke="#B3B3B3" stroke-width="1.25" stroke-miterlimit="10" stroke-linecap="round" stroke-linejoin="round"/>
<path d="M18.3333 16.3333C18.3333 16.9583 18.1583 17.55 17.85 18.05C17.275 19.0167 16.2166 19.6667 15 19.6667C14.1583 19.6667 13.3916 19.3583 12.8083 18.8333C12.55 18.6167 12.325 18.35 12.15 18.05C11.8416 17.55 11.6666 16.9583 11.6666 16.3333C11.6666 14.4917 13.1583 13 15 13C16 13 16.8916 13.4417 17.5 14.1333C18.0166 14.725 18.3333 15.4917 18.3333 16.3333Z" stroke="#B3B3B3" stroke-width="1.25" stroke-miterlimit="10" stroke-linecap="round" stroke-linejoin="round"/>
<path d="M13.7 16.3333L14.5249 17.1583L16.2999 15.5166" stroke="#B3B3B3" stroke-width="1.25" stroke-linecap="round" stroke-linejoin="round"/>
<path d="M17.5 7.58366V14.1336C16.8917 13.442 16 13.0003 15 13.0003C13.1583 13.0003 11.6667 14.492 11.6667 16.3337C11.6667 16.9587 11.8417 17.5503 12.15 18.0503C12.325 18.3503 12.55 18.617 12.8083 18.8337H6.66667C3.75 18.8337 2.5 17.167 2.5 14.667V7.58366C2.5 5.08366 3.75 3.41699 6.66667 3.41699H13.3333C16.25 3.41699 17.5 5.08366 17.5 7.58366Z" stroke="#B3B3B3" stroke-width="1.25" stroke-miterlimit="10" stroke-linecap="round" stroke-linejoin="round"/>
<path d="M9.9962 11.9167H10.0037" stroke="#B3B3B3" stroke-width="1.66667" stroke-linecap="round" stroke-linejoin="round"/>
<path d="M6.91197 11.9167H6.91945" stroke="#B3B3B3" stroke-width="1.66667" stroke-linecap="round" stroke-linejoin="round"/>
<path d="M6.91197 14.4167H6.91945" stroke="#B3B3B3" stroke-width="1.66667" stroke-linecap="round" stroke-linejoin="round"/>
</svg>
