<svg width="24" height="24" viewBox="0 0 24 24" fill="none" xmlns="http://www.w3.org/2000/svg">
<path d="M9.15981 10.87C9.05981 10.86 8.93981 10.86 8.82981 10.87C6.44981 10.79 4.55981 8.84 4.55981 6.44C4.55981 3.99 6.53981 2 8.99982 2C11.4498 2 13.4398 3.99 13.4398 6.44C13.4298 8.84 11.5398 10.79 9.15981 10.87Z" stroke="white" stroke-linecap="round" stroke-linejoin="round"/>
<path d="M16.4098 4C18.3498 4 19.9098 5.57 19.9098 7.5C19.9098 9.39 18.4098 10.93 16.5398 11C16.4598 10.99 16.3698 10.99 16.2798 11" stroke="white" stroke-linecap="round" stroke-linejoin="round"/>
<path d="M4.16022 14.56C1.74021 16.18 1.74021 18.82 4.16022 20.43C6.91022 22.27 11.4202 22.27 14.1702 20.43C16.5902 18.81 16.5902 16.17 14.1702 14.56C11.4302 12.73 6.92022 12.73 4.16022 14.56Z" stroke="white" stroke-width="1.01105" stroke-linecap="round" stroke-linejoin="round"/>
<path d="M18.3398 20C19.0598 19.85 19.7398 19.56 20.2998 19.13C21.8598 17.96 21.8598 16.03 20.2998 14.86C19.7498 14.44 19.0798 14.16 18.3698 14" stroke="white" stroke-width="1.01105" stroke-linecap="round" stroke-linejoin="round"/>
</svg>
