<svg width="320" height="320" viewBox="0 0 320 320" fill="none" xmlns="http://www.w3.org/2000/svg">
<path d="M160 320C248.366 320 320 248.366 320 160C320 71.6344 248.366 0 160 0C71.6344 0 0 71.6344 0 160C0 248.366 71.6344 320 160 320Z" fill="#E6E6E6"/>
<path fill-rule="evenodd" clip-rule="evenodd" d="M110.543 186.288C109.989 186.725 109.173 186.9 107.075 187.628C96.0585 191.446 85.1004 195.964 74.2006 201.297C67.3227 204.648 67.993 203.424 65.0203 210.39C57.3554 228.226 50.0695 246.878 44.707 264.801C62.7471 284.24 85.6542 299.104 111.476 307.468C121.181 310.091 131.264 312.248 141.552 314.026C147.089 314.667 152.743 315.046 158.456 315.104H161.982C167.549 315.016 173.028 314.667 178.448 314.026C188.707 312.248 198.82 310.091 208.525 307.468C234.346 299.104 257.224 284.24 275.294 264.801C269.931 246.878 262.645 228.226 254.98 210.39C252.008 203.424 252.678 204.648 245.771 201.297C234.9 195.964 223.942 191.446 212.926 187.628C211.439 187.104 210.623 186.871 210.04 186.638L209.895 186.288C207.796 182.674 205.319 179.322 202.492 176.175C215.869 177.107 226.74 173.785 233.559 165.537C240.146 157.523 240.525 151.577 240.875 141.873C241.545 122.842 240.088 102.383 234.842 83.3224C229.742 64.6995 221.057 47.4171 207.272 34.1275C194.069 21.4208 178.652 11.3953 160 11.3953C146.856 11.3953 135.461 13.8142 127.417 26.5501C119.49 25.5301 115.177 29.0565 109.902 34.1275C96.1168 47.4171 87.4319 64.6995 82.3318 83.3224C77.0859 102.383 75.6287 122.842 76.299 141.873C76.6487 151.577 76.9984 157.523 83.6141 165.537C90.9001 174.368 102.849 177.545 117.508 175.942H117.683C114.973 179.031 112.612 182.499 110.543 186.288Z" fill="#1A1617"/>
<path fill-rule="evenodd" clip-rule="evenodd" d="M117.508 175.971C120.393 172.882 123.832 169.996 127.679 167.257L129.69 157.931C122.725 149.829 117.479 138.987 114.856 126.601C109.581 126.718 104.015 120.568 101.858 111.767C100.109 104.772 99.9927 99.1184 101.945 95.5337C105.268 89.4426 111.213 93.2313 113.574 97.7486C115.76 79.2714 123.599 63.4171 134.586 53.6831C142.543 62.6594 151.956 70.0911 164.342 71.4608C188.036 74.0838 200.568 82.5064 206.28 96.4955C208.962 92.5902 214.12 90.0255 217.151 95.5337C219.075 99.1184 218.958 104.772 217.239 111.767C215.199 120.044 210.157 125.989 205.173 126.543C202.608 138.521 197.654 149.042 191.038 157.056L190.893 157.931L193.02 167.752C196.342 169.996 199.665 172.823 202.346 176.233C215.781 177.195 226.71 173.872 233.559 165.596C240.146 157.581 240.525 151.636 240.874 141.931C241.545 122.9 240.087 102.412 234.842 83.3515C229.741 64.7286 221.056 47.4463 207.271 34.1858C194.069 21.4791 178.652 11.4244 160 11.4244C146.856 11.4244 135.461 13.8725 127.417 26.5792C119.49 25.5592 115.177 29.1148 109.902 34.1858C96.1165 47.4463 87.4317 64.7286 82.3315 83.3515C77.0856 102.412 75.6284 122.9 76.2987 141.931C76.6484 151.636 76.9981 157.581 83.6138 165.596C90.8998 174.426 102.849 177.603 117.508 175.971Z" fill="#3D3D3D"/>
<path fill-rule="evenodd" clip-rule="evenodd" d="M206.28 96.4955C208.962 92.5902 214.12 90.0255 217.151 95.5337C219.075 99.1184 218.958 104.772 217.239 111.767C215.199 120.044 210.157 125.989 205.173 126.543C202.608 138.521 197.654 149.042 191.038 157.056L190.893 157.931L192.933 167.286L192.758 167.257C192.933 167.811 193.108 168.335 193.253 168.86L193.341 169.18C194.04 171.745 194.71 174.455 195.293 177.341C199.344 200.568 191.038 222.31 181.246 244.838C175.825 250.608 167.694 255.067 160.291 254.747C152.772 255.067 144.466 250.463 139.075 244.517C129.953 223.563 122.171 203.25 124.503 181.77C125.202 177.253 126.193 172.998 127.271 169.18L127.679 167.257L129.69 157.931C122.725 149.829 117.479 138.987 114.856 126.601C109.581 126.718 104.015 120.568 101.858 111.767C100.109 104.772 99.9927 99.1184 101.945 95.5337C105.268 89.4426 111.213 93.2313 113.574 97.7486C115.76 79.2714 123.599 63.4171 134.586 53.6831C142.543 62.6594 151.956 70.0911 164.342 71.4608C188.036 74.0838 200.568 82.5064 206.28 96.4955Z" fill="#F6D5B8"/>
<path fill-rule="evenodd" clip-rule="evenodd" d="M114.448 124.619C113.399 119.781 112.846 114.885 112.729 109.96C112.642 106.783 112.758 103.636 113.05 100.459C112.787 100.109 112.525 99.7596 112.204 99.4099C111.214 98.3316 109.407 96.9327 107.775 97.0492C106.55 97.1658 105.764 98.1567 105.268 99.0893C103.199 102.82 104.569 109.086 105.676 112.904C106.638 116.168 108.328 119.548 110.805 122.055C111.767 123.046 113.05 124.036 114.448 124.619ZM205.261 124.619C206.31 119.781 206.864 114.885 206.98 109.96C207.068 106.783 206.951 103.636 206.66 100.459C206.922 100.109 207.184 99.7596 207.505 99.4099C208.496 98.3316 210.303 96.9327 211.935 97.0492C213.159 97.1658 213.946 98.1567 214.47 99.0893C216.51 102.82 215.141 109.086 214.033 112.904C213.071 116.168 211.381 119.548 208.904 122.055C207.942 123.046 206.689 124.036 205.261 124.619Z" fill="#E6C6AA"/>
<path fill-rule="evenodd" clip-rule="evenodd" d="M192.933 167.286L190.893 157.931L191.038 157.056C182.761 167.082 171.891 173.173 160 173.173C148.459 173.173 137.88 167.432 129.69 157.931L129.108 160.583C132.517 165.188 136.423 168.831 140.765 171.687C146.623 175.505 153.239 177.894 160.466 179.206C167.956 180.576 176.088 180.78 184.627 180.255C186.842 180.109 186.492 179.73 187.075 181.916C194.157 209.69 182.091 254.98 139.337 244.809C144.729 250.608 152.889 255.067 160.291 254.747C167.694 255.067 175.825 250.608 181.246 244.838C191.854 220.415 201.734 193.953 192.933 167.286Z" fill="#E6C6AA"/>
<path fill-rule="evenodd" clip-rule="evenodd" d="M206.28 96.4955C200.568 82.5064 188.036 74.0838 164.342 71.4608C151.956 70.0911 142.543 62.6594 134.586 53.6831C123.599 63.4171 115.759 79.2714 113.574 97.7195C119.898 84.663 124.881 69.683 134.266 60.4735C146.448 89.2969 187.862 71.2277 206.28 96.4955Z" fill="#E6C6AA"/>
<path fill-rule="evenodd" clip-rule="evenodd" d="M209.895 186.288C211.352 189.464 212.605 192.729 213.596 196.08C214.587 199.432 215.315 202.9 215.752 206.455C215.869 207.446 216.015 208 215.985 208.525C215.985 209.02 215.781 209.516 215.228 210.332C214.12 212.022 212.809 213.567 211.264 215.053C209.719 216.51 207.971 217.88 206.047 219.191L212.984 226.594L219.949 233.996L160.233 310.237L100.488 233.996L107.454 226.594L114.39 219.191C112.466 217.88 110.718 216.51 109.173 215.053C107.658 213.567 106.317 212.022 105.209 210.332C104.656 209.516 104.452 209.02 104.452 208.525C104.423 208 104.568 207.446 104.685 206.455C105.122 202.9 105.851 199.432 106.842 196.08C107.832 192.729 109.086 189.464 110.543 186.288C112.7 182.353 115.148 178.769 118.004 175.563C120.831 172.357 124.036 169.588 127.679 167.257C120.015 190.455 125.727 211.964 134.557 233.822C143.388 255.709 155.366 277.975 160.233 302.747C165.071 277.975 177.078 255.709 185.967 233.851C194.856 211.964 200.597 190.484 192.933 167.286C196.488 170.025 199.665 172.94 202.492 176.117C205.319 179.264 207.796 182.645 209.895 186.288Z" fill="#383032"/>
<path fill-rule="evenodd" clip-rule="evenodd" d="M160.233 302.747C164.255 282.113 173.231 263.228 181.246 244.838C175.825 250.608 167.694 255.067 160.291 254.747C152.889 255.067 144.729 250.608 139.337 244.809C139.25 244.721 139.162 244.605 139.075 244.517C147.089 262.995 156.153 281.996 160.233 302.747Z" fill="white"/>
</svg>
